<?xml version="1.0"?>
<svg xmlns="http://www.w3.org/2000/svg" xmlns:xlink="http://www.w3.org/1999/xlink" version="1.1" id="Capa_1" x="0px" y="0px" viewBox="0 0 47 47" style="enable-background:new 0 0 47 47;" xml:space="preserve" nighteye="disabled" width="512px" height="512px" class=""><g transform="matrix(0.9999 0 0 0.9999 0.00235 0.00235)"><g>
	<path d="M46,47H19c-0.553,0-1-0.448-1-1s0.447-1,1-1h27c0.553,0,1,0.448,1,1S46.553,47,46,47z" data-original="#57B0E3" class="active-path" data-old_color="#57B0E3" fill="#919294"/>
	<path d="M46,47c-0.553,0-1-0.448-1-1V19c0-0.552,0.447-1,1-1s1,0.448,1,1v27C47,46.552,46.553,47,46,47z" data-original="#57B0E3" class="active-path" data-old_color="#57B0E3" fill="#919294"/>
	<path d="M46,47c-0.256,0-0.512-0.098-0.707-0.293l-45-45c-0.391-0.391-0.391-1.023,0-1.414   s1.023-0.391,1.414,0l45,45c0.391,0.391,0.391,1.023,0,1.414C46.512,46.902,46.256,47,46,47z" data-original="#57B0E3" class="active-path" data-old_color="#57B0E3" fill="#919294"/>
</g></g> </svg>
